<svg xmlns="http://www.w3.org/2000/svg" viewBox="0 0 1418.13 610.58"><defs><style>.cls-1{fill:#fff;}</style></defs><g id="Layer_2" data-name="Layer 2"><g id="Layer_1-2" data-name="Layer 1"><path class="cls-1" d="M573.31,266.48C562.08,221.66,521,164.7,460.49,117.8,352.62,34.3,173.9-29,27.39,13.68,17.77,16.13,1,38.67,0,50.35c-1,13.9,23.09,19.13,41.86,15.49C46.67,64.63,56.19,64,54,56.51c-7.13-9.82-19.78-6-26.49-11.32,2.4-4.51,9.35-4.66,14.43-6.88,94.22-14.24,165.21.57,246.59,33.74,89,38,193.15,89.71,230.3,188.24,11.26,36.21,3.59,85.94-28.23,109.37-58.9,45.25-152.21,49.86-224.23,34.08-1.48-45.23,1.77-86.64,1.52-134.66,51.22.81,124.91,10.24,136.54,31,2,3.58-1.7,10-7.11,12.84-10.86,5.5-21.42,11.75-19.12,15.6,3,5.24,25.39,14.48,35.07,10.06,12.9-5.87,24.85-18.76,29.69-32.88,4.44-12.77-1-30.5-10.39-39.47-35.21-34.15-132.94-42.67-163.73-41.31,0,0-1.6-45.4-2.75-61.39-1.93-26.76-22-46-25.85-37-13.54,32.07-16,78.69-17.75,99.26-13.62,2.34-39,5.35-73.54,17.84-19.45,7-42.81,15.87-60.37,32.15-8.58,7.95-10.69,23.62-7.26,32.89C94,342.31,160.06,397.49,215.29,423c2.11,16.67,1.85,41.56,12.69,46.67,8.58,4.06,16,6.11,26.14,3.09,11.34-3.25,11.88-24.94,12.46-31,83.62,23,181.52,19.47,252.23-29.5,56.69-42.78,65.62-101.39,54.5-145.77M215.24,389.32c-40-14-91.55-43.7-115.78-78.57C93,301.28,91.55,293.11,110.09,286c32.8-12.59,85.43-15.9,109.87-15.74-1.61,32-4,80.78-4.72,119"/><path class="cls-1" d="M640.45,258.91c6.51,51.78,6.92,152.12,1.14,164.41-4.47,9-18.33,9.13-27.54,6.21-19.22-5.06-14.21-28.85-16.18-45.51.91-48,1.81-96.89,11-142.22,1.79-8.66,4.72-12,12.18-11.81,7.19.1,18,17.08,19.42,28.92"/><path class="cls-1" d="M692.46,375.05c8.12,15.9,54,19.18,72.69,16.78,40.65-5.15,63.49-20.69,66.39-33.16,4.46-18.49-24-24.44-44.23-29-35.95-8.19-68.59-3.16-104.29-11.78-9.44-2.24-13.74-8-14.65-16.22-2.13-17.74,3.8-37.27,16.17-46.64,35.6-27.22,147.31-32.88,182.74-14.41,6.39,3.38,3.67,13.27-.26,18.53-8,10.82-24.32,7.52-38.5,8.83-41,3.75-83.48.15-120.66,12.92-6,2.1-5,12.86,7.11,14.76,49.18,7.55,124.52,2.75,140.33,37.77,8.1,17.76,5.93,55.84-7,68.93C819.5,431.49,764,429.73,740.15,424.79c-16.22-3.35-55.75-17.09-66.57-51.27C671.42,360.78,676,351,684,345c21.25-15.91,47.22-11.57,75.55-7.61,16.72,2.35,43.1,12.57,45.08,16.75,3.8,7.67,1.75,15.08-30.8,18.82-33.54,3-51-27.64-75.86-15.46-4.58,2.24-7.51,13.69-5.49,17.52"/><path class="cls-1" d="M924.39,251c25.48,24.12,52.74,81.29,72.48,110.26,3.67,5.45,9.93,2,10-3.51.81-50.77-19.44-90.76-25.65-137.8-.54-4.41-2.77-14,2.35-14.71,11.55-1.55,22,13.19,29.09,22,25,31,37.64,91.6,31.37,138.53-2,15.05-10.19,46.93-24,52.74-7,2.84-23.48,4.61-29.06.62-24.79-17.75-56.77-106-66.65-105.21-2.47.15-4.49,3.6-5.3,11.08-3,24.66-5.75,90.54-5.75,90.54-2,15.44-13.36,13.87-18.64,13.88-9.65-.22-17-5.71-17.93-10.89-3.37-22-2-53.36.62-75.93,3.47-28.14,12.58-65,23.73-86.09,5.51-10.69,17.5-11.12,23.41-5.5"/><path class="cls-1" d="M1086.61,316.89l14.43-33.3c-10-2.26-31.66-11.46-35.46-28.68.07-2.63,15-6.88,21.1-7.5,46.13-4.92,77.85-9.29,118.31-7.25,8.67.39,32.41,27.5,26.22,37.48-4.29,7-38.2,6-51.78,5.47-13.11-.57-38.16,1.77-38.16,1.77l-12.16,31.7c19.75-.63,51.39-3.68,59.93,1.79,3.62,2.31,3.93,18.47,2.13,22.31C1187,350.06,1165,347,1151.93,347c-13.86,0-36.56,1.05-36.56,1.05,1.07-1.9-16.83,34.37-13,42.2,3.27,6.68,69-11.63,85.24-8.68,10.65,1.87,17.86,19.44,11.23,25.21-30.44,26.91-80.08,48.9-107.52,40.52-25.44-7.85-36.74-33.92-31.53-54.65,4-16.3,13.51-45.76,13.51-45.76-.77-.38-4.77-2.83-6.42-21.59-.61-7.2,19.77-8.49,19.7-8.37"/><path class="cls-1" d="M1404.87,267.74c-6.7-7.59-20.92-13.51-32.37-9.41-29.62,10.64-46.81,31.88-69.32,55.78-14.69,16.46-30.29,43-40.82,57.53-3.52-2.95-4.86-12.46-4.54-19.79,5.41-43,51.79-75.77,46.83-113.58-1-7.48-18.79,8.71-23.58,13.62-30.72,33.64-58.1,76-52.29,124.68,2,16.79,11.58,32.84,11.58,32.84s-34.07,66.48-44.07,111.64c-5,22.83-6.4,45.67.42,62.14,7,15.65,34,36,36.62,23.52,11.88-57.28,30.47-114.68,48.55-167.47a68.13,68.13,0,0,0,24.61,2.68c48.11-4.22,93.1-45.24,106.1-95.6,7.89-28.4,9-56.64-7.72-78.58m-41.51,105.83c-17.46,14.08-40.2,24.9-58.24,22.9,10-16.73,21.09-36.47,34.78-54.64,9.75-13,29.82-36.72,45.79-45.43,4.77-2.64,8.18,3.21,8,11.39-.61,26.43-11,49.2-30.28,65.78"/><path class="cls-1" d="M742.13,80.32c-6.51-5.9-18.07-7.29-27.43-6.49C710.37,48.19,658,50.66,637.47,55.55a119.66,119.66,0,0,0-79,60.78c-10.09,19.12-5.06,47.73,8.66,56.27-2.23,5-2.37,13.39-1.54,17.93,1.74,10.58,11.25,20.51,18.48,20.67,6.84,0,12.82-15.75,15.24-18,17.69,4.8,37.44,8.74,59,3.91C701,187.5,733,158.55,746,129.88c7.85-17.32,8.92-38-3.82-49.56M584.4,146.2c-5.16-5.19-3.48-16.61-.6-21.67a65.18,65.18,0,0,1,11.91-16A89.2,89.2,0,0,1,620,92.18c4.7-2.16,15-4.5,21.07-2.42-21.67,13.39-44,37-56.7,56.44m90.53,15.18c-23,8.53-50.92,4.91-58.27,1.81,19.88-32.95,56-62.13,80.45-66.1,13.35-2.14,24.74-2,27.44,8,4.09,15.28-8.42,40.95-49.62,56.32"/></g></g></svg>